<svg width="384" height="150" viewBox="0 0 384 150" fill="none" xmlns="http://www.w3.org/2000/svg">
<path d="M86.7111 79.8492C58.4207 79.1427 40.1867 111.732 39.3973 125.359C42.3665 117.903 62.8239 115.404 68.7837 115.859C101.792 124.644 117.274 90.122 121.281 75.4112C120.688 76.0754 115.002 80.5557 86.7111 79.8492Z" fill="#FFD566"/>
<path d="M49.054 39.4545C27.1248 59.8917 28.4004 107.792 34.6196 131.726C35.4435 129.349 55.4605 104.598 76.7478 90.208C113.364 65.4564 100.003 28.9066 94.8241 17.1145C74.8753 27.8023 71.4259 18.6046 49.054 39.4545Z" fill="#8966FF"/>
<path d="M30.2709 113.237C30.3842 110.257 30.4975 107.277 30.6107 104.297C30.7812 104.388 32.4129 103.95 33.6993 103.253C35.0613 102.559 36.4816 101.631 37.8287 100.631C52.2838 89.3066 62.5529 71.4625 65.8218 52.9127L72.9585 53.6746C72.3019 64.7469 73.0789 76.2411 74.7336 87.394C75.5949 92.9375 76.7029 98.5478 78.4821 103.664C79.3651 106.166 80.546 108.766 81.8486 110.003C82.1394 110.279 82.3787 110.39 82.4258 110.403C82.4749 110.412 82.4416 110.457 82.6844 110.359C83.1603 110.16 83.9718 109.364 84.6847 108.314C90.2722 100.693 90.2457 91.476 92.2918 80.8286L96.8749 81.9957C93.6622 91.8306 83.6887 92.5585 76.6591 93.6023C69.1226 94.3563 61.6334 94.0435 54.259 93.379C50.4567 93.0231 46.706 92.568 42.9671 91.9533C43.1445 90.8491 43.3218 89.7449 43.4991 88.6407C47.0852 89.1381 50.8319 89.5015 54.5497 89.756C61.7769 90.2295 69.1082 90.3369 76.1762 89.4476C82.9418 88.5798 91.1497 86.374 92.2646 80.9352L96.8478 82.1022C95.366 90.7084 95.5028 102.461 89.2271 111.359C88.2276 112.81 87.2783 114.203 85.1612 115.355C84.0542 115.931 82.5802 116.207 81.2221 115.903C79.854 115.608 78.8261 114.907 78.0685 114.247C75.1084 111.404 74.1303 108.576 72.9471 105.703C70.8062 99.9886 69.5409 94.1953 68.4911 88.4306C66.4866 76.8449 65.3828 65.1917 65.7818 53.2873L72.9185 54.0492C69.7029 74.5959 59.5573 93.8347 43.0931 107.516C39.6503 109.902 36.982 112.763 30.2709 113.237Z" fill="white"/>
<path d="M168.42 26.8104H185.409L162.085 63.7647V94H147.687V63.7647L124.363 26.8104H141.352L154.886 48.1191L168.42 26.8104ZM189.487 76.5787V46.0074H203.885V72.5473C203.885 74.0511 204.253 75.4269 204.989 76.6747C205.725 77.8905 206.701 78.8663 207.917 79.6022C209.164 80.3061 210.524 80.6581 211.996 80.6581C213.5 80.6581 214.859 80.3061 216.075 79.6022C217.323 78.8663 218.299 77.8905 219.003 76.6747C219.739 75.4269 220.107 74.0511 220.107 72.5473V46.0074H234.504L234.552 94H220.155L220.107 90.8805C218.507 92.2563 216.683 93.3281 214.635 94.096C212.588 94.8639 210.428 95.2478 208.156 95.2478C204.733 95.2478 201.597 94.4159 198.75 92.7522C195.934 91.0565 193.679 88.8008 191.983 85.9852C190.319 83.1697 189.487 80.0342 189.487 76.5787ZM246.292 46.0074H260.69V94H246.292V46.0074ZM253.587 41.0162C251.507 41.0162 249.763 40.3283 248.355 38.9525C246.948 37.5767 246.244 35.865 246.244 33.8173C246.244 31.8016 246.948 30.1059 248.355 28.7301C249.763 27.3223 251.491 26.6184 253.539 26.6184C255.554 26.6184 257.25 27.3223 258.626 28.7301C260.034 30.1059 260.738 31.8016 260.738 33.8173C260.738 35.865 260.05 37.5767 258.674 38.9525C257.33 40.3283 255.634 41.0162 253.587 41.0162ZM274.274 94V22.0112H288.672V94H274.274ZM316.079 94.8639C313.647 94.6399 311.312 94.112 309.072 93.2801C306.832 92.4482 304.833 91.3124 303.073 89.8726C301.313 88.4329 299.922 86.6731 298.898 84.5935L310.992 79.4103C311.312 79.7622 311.76 80.2101 312.336 80.7541C312.911 81.266 313.631 81.7299 314.495 82.1458C315.391 82.5618 316.463 82.7697 317.711 82.7697C318.543 82.7697 319.342 82.6898 320.11 82.5298C320.91 82.3378 321.55 82.0179 322.03 81.5699C322.542 81.122 322.798 80.4981 322.798 79.6982C322.798 78.8024 322.462 78.1305 321.79 77.6825C321.15 77.2026 320.366 76.8667 319.438 76.6747C318.511 76.4507 317.647 76.2747 316.847 76.1468C313.999 75.6988 311.264 74.803 308.64 73.4592C306.049 72.0834 303.921 70.3077 302.257 68.132C300.593 65.9243 299.762 63.3487 299.762 60.4052C299.762 57.1097 300.609 54.2622 302.305 51.8625C304.001 49.4629 306.209 47.6232 308.928 46.3434C311.68 45.0316 314.639 44.3757 317.807 44.3757C321.55 44.3757 325.006 45.1436 328.173 46.6793C331.373 48.2151 333.996 50.4228 336.044 53.3023L324.718 60.0213C324.334 59.5413 323.854 59.0614 323.278 58.5815C322.734 58.0696 322.094 57.6376 321.358 57.2857C320.654 56.9017 319.886 56.6618 319.055 56.5658C317.935 56.4698 316.927 56.5178 316.031 56.7098C315.167 56.8698 314.479 57.2217 313.967 57.7656C313.455 58.2775 313.199 59.0294 313.199 60.0213C313.199 60.9491 313.647 61.621 314.543 62.037C315.439 62.4529 316.447 62.7568 317.567 62.9488C318.687 63.1408 319.598 63.3487 320.302 63.5727C323.054 64.4686 325.646 65.6364 328.077 67.0762C330.509 68.5159 332.46 70.2597 333.932 72.3074C335.436 74.355 336.14 76.7547 336.044 79.5062C336.044 82.7058 335.084 85.5213 333.164 87.9529C331.245 90.3846 328.765 92.2243 325.726 93.4721C322.686 94.7199 319.47 95.1838 316.079 94.8639ZM344.863 46.0074H359.26V94H344.863V46.0074ZM352.157 41.0162C350.078 41.0162 348.334 40.3283 346.926 38.9525C345.518 37.5767 344.815 35.865 344.815 33.8173C344.815 31.8016 345.518 30.1059 346.926 28.7301C348.334 27.3223 350.062 26.6184 352.109 26.6184C354.125 26.6184 355.821 27.3223 357.197 28.7301C358.604 30.1059 359.308 31.8016 359.308 33.8173C359.308 35.865 358.62 37.5767 357.245 38.9525C355.901 40.3283 354.205 41.0162 352.157 41.0162Z" fill="#8966FF"/>
<path d="M151.542 117.668C153.752 117.668 155.662 118.085 157.272 118.919C158.901 119.733 160.142 120.906 160.995 122.438C161.868 123.97 162.304 125.773 162.304 127.848C162.304 129.923 161.868 131.727 160.995 133.258C160.142 134.771 158.901 135.934 157.272 136.749C155.662 137.544 153.752 137.941 151.542 137.941H145.23V117.668H151.542ZM151.542 135.76C154.16 135.76 156.157 135.072 157.534 133.695C158.911 132.299 159.599 130.35 159.599 127.848C159.599 125.327 158.901 123.359 157.505 121.944C156.128 120.528 154.14 119.82 151.542 119.82H147.877V135.76H151.542ZM180.979 129.361C180.979 129.865 180.95 130.398 180.891 130.961H168.151C168.248 132.531 168.782 133.763 169.751 134.655C170.74 135.527 171.933 135.964 173.329 135.964C174.473 135.964 175.423 135.702 176.179 135.178C176.955 134.635 177.498 133.918 177.808 133.026H180.659C180.232 134.558 179.379 135.808 178.099 136.778C176.819 137.728 175.229 138.203 173.329 138.203C171.816 138.203 170.459 137.864 169.257 137.185C168.074 136.506 167.143 135.547 166.464 134.306C165.786 133.045 165.446 131.591 165.446 129.943C165.446 128.294 165.776 126.85 166.435 125.609C167.095 124.368 168.016 123.417 169.198 122.758C170.401 122.079 171.777 121.74 173.329 121.74C174.841 121.74 176.179 122.07 177.343 122.729C178.506 123.388 179.398 124.3 180.019 125.463C180.659 126.607 180.979 127.906 180.979 129.361ZM178.244 128.808C178.244 127.8 178.021 126.937 177.575 126.219C177.129 125.483 176.519 124.93 175.743 124.561C174.987 124.174 174.143 123.98 173.212 123.98C171.874 123.98 170.73 124.406 169.78 125.26C168.849 126.113 168.316 127.296 168.18 128.808H178.244ZM190.755 138.203C189.534 138.203 188.438 138 187.468 137.592C186.499 137.166 185.733 136.584 185.171 135.847C184.608 135.091 184.298 134.228 184.24 133.258H186.974C187.051 134.053 187.42 134.703 188.079 135.207C188.758 135.711 189.64 135.964 190.726 135.964C191.734 135.964 192.529 135.741 193.111 135.295C193.693 134.849 193.984 134.286 193.984 133.607C193.984 132.909 193.674 132.396 193.053 132.066C192.433 131.717 191.473 131.377 190.173 131.048C188.991 130.738 188.021 130.427 187.265 130.117C186.528 129.787 185.888 129.312 185.345 128.692C184.821 128.052 184.56 127.218 184.56 126.19C184.56 125.376 184.802 124.629 185.287 123.951C185.772 123.272 186.46 122.739 187.352 122.351C188.244 121.944 189.262 121.74 190.406 121.74C192.171 121.74 193.596 122.186 194.682 123.078C195.768 123.97 196.35 125.192 196.427 126.743H193.78C193.722 125.909 193.383 125.24 192.762 124.736C192.161 124.232 191.347 123.98 190.319 123.98C189.369 123.98 188.612 124.183 188.05 124.591C187.488 124.998 187.207 125.531 187.207 126.19C187.207 126.714 187.371 127.15 187.701 127.499C188.05 127.829 188.477 128.1 188.981 128.314C189.504 128.508 190.222 128.731 191.133 128.983C192.277 129.293 193.208 129.603 193.926 129.913C194.643 130.204 195.254 130.65 195.758 131.251C196.282 131.853 196.553 132.638 196.573 133.607C196.573 134.48 196.33 135.265 195.845 135.964C195.361 136.662 194.672 137.214 193.78 137.621C192.908 138.009 191.899 138.203 190.755 138.203ZM202.316 119.413C201.812 119.413 201.385 119.239 201.036 118.89C200.687 118.541 200.513 118.114 200.513 117.61C200.513 117.106 200.687 116.679 201.036 116.33C201.385 115.981 201.812 115.806 202.316 115.806C202.801 115.806 203.208 115.981 203.538 116.33C203.887 116.679 204.061 117.106 204.061 117.61C204.061 118.114 203.887 118.541 203.538 118.89C203.208 119.239 202.801 119.413 202.316 119.413ZM203.596 122.002V137.941H200.949V122.002H203.596ZM215.321 121.74C216.697 121.74 217.9 122.041 218.927 122.642C219.974 123.243 220.75 123.999 221.254 124.911V122.002H223.93V138.29C223.93 139.745 223.62 141.034 222.999 142.159C222.379 143.303 221.487 144.195 220.323 144.835C219.179 145.475 217.841 145.795 216.31 145.795C214.215 145.795 212.47 145.3 211.074 144.311C209.678 143.322 208.854 141.975 208.602 140.268H211.219C211.51 141.238 212.111 142.014 213.023 142.595C213.934 143.196 215.03 143.497 216.31 143.497C217.764 143.497 218.947 143.041 219.858 142.13C220.789 141.219 221.254 139.939 221.254 138.29V134.945C220.731 135.876 219.955 136.652 218.927 137.272C217.9 137.893 216.697 138.203 215.321 138.203C213.905 138.203 212.615 137.854 211.452 137.156C210.308 136.458 209.406 135.479 208.747 134.218C208.088 132.958 207.758 131.523 207.758 129.913C207.758 128.285 208.088 126.859 208.747 125.638C209.406 124.397 210.308 123.437 211.452 122.758C212.615 122.079 213.905 121.74 215.321 121.74ZM221.254 129.943C221.254 128.74 221.012 127.693 220.527 126.801C220.042 125.909 219.383 125.23 218.549 124.765C217.735 124.28 216.833 124.038 215.844 124.038C214.855 124.038 213.953 124.271 213.139 124.736C212.325 125.201 211.675 125.88 211.19 126.772C210.705 127.664 210.463 128.711 210.463 129.913C210.463 131.135 210.705 132.202 211.19 133.113C211.675 134.005 212.325 134.693 213.139 135.178C213.953 135.644 214.855 135.876 215.844 135.876C216.833 135.876 217.735 135.644 218.549 135.178C219.383 134.693 220.042 134.005 220.527 133.113C221.012 132.202 221.254 131.145 221.254 129.943ZM236.809 121.711C238.748 121.711 240.319 122.302 241.521 123.485C242.724 124.649 243.325 126.336 243.325 128.546V137.941H240.707V128.925C240.707 127.334 240.309 126.122 239.514 125.289C238.719 124.435 237.633 124.009 236.257 124.009C234.861 124.009 233.746 124.445 232.912 125.318C232.097 126.19 231.69 127.46 231.69 129.128V137.941H229.043V122.002H231.69V124.271C232.214 123.456 232.921 122.826 233.813 122.38C234.725 121.934 235.723 121.711 236.809 121.711ZM262.832 129.361C262.832 129.865 262.803 130.398 262.745 130.961H250.005C250.101 132.531 250.635 133.763 251.604 134.655C252.593 135.527 253.786 135.964 255.182 135.964C256.326 135.964 257.276 135.702 258.032 135.178C258.808 134.635 259.351 133.918 259.661 133.026H262.512C262.085 134.558 261.232 135.808 259.952 136.778C258.672 137.728 257.082 138.203 255.182 138.203C253.669 138.203 252.312 137.864 251.11 137.185C249.927 136.506 248.996 135.547 248.317 134.306C247.639 133.045 247.299 131.591 247.299 129.943C247.299 128.294 247.629 126.85 248.288 125.609C248.948 124.368 249.869 123.417 251.052 122.758C252.254 122.079 253.631 121.74 255.182 121.74C256.694 121.74 258.032 122.07 259.196 122.729C260.359 123.388 261.251 124.3 261.872 125.463C262.512 126.607 262.832 127.906 262.832 129.361ZM260.098 128.808C260.098 127.8 259.875 126.937 259.429 126.219C258.983 125.483 258.372 124.93 257.596 124.561C256.84 124.174 255.996 123.98 255.066 123.98C253.728 123.98 252.584 124.406 251.633 125.26C250.703 126.113 250.169 127.296 250.034 128.808H260.098ZM269.612 124.591C270.078 123.679 270.737 122.971 271.59 122.467C272.463 121.963 273.52 121.711 274.761 121.711V124.445H274.063C271.096 124.445 269.612 126.055 269.612 129.274V137.941H266.966V122.002H269.612V124.591ZM289.439 117.668V130.495C289.439 132.299 289.876 133.637 290.748 134.509C291.64 135.382 292.872 135.818 294.442 135.818C295.994 135.818 297.206 135.382 298.078 134.509C298.97 133.637 299.416 132.299 299.416 130.495V117.668H302.063V130.466C302.063 132.153 301.724 133.578 301.045 134.742C300.366 135.886 299.445 136.739 298.282 137.301C297.138 137.864 295.848 138.145 294.413 138.145C292.978 138.145 291.679 137.864 290.516 137.301C289.372 136.739 288.46 135.886 287.781 134.742C287.122 133.578 286.792 132.153 286.792 130.466V117.668H289.439ZM309.765 117.668V137.941H307.118V117.668H309.765ZM324.806 110.542L316.836 142.886H314.218L322.159 110.542H324.806ZM331.978 117.668V130.495C331.978 132.299 332.415 133.637 333.287 134.509C334.179 135.382 335.411 135.818 336.981 135.818C338.533 135.818 339.745 135.382 340.617 134.509C341.509 133.637 341.955 132.299 341.955 130.495V117.668H344.602V130.466C344.602 132.153 344.263 133.578 343.584 134.742C342.905 135.886 341.984 136.739 340.821 137.301C339.677 137.864 338.387 138.145 336.952 138.145C335.517 138.145 334.218 137.864 333.055 137.301C331.911 136.739 330.999 135.886 330.32 134.742C329.661 133.578 329.331 132.153 329.331 130.466V117.668H331.978ZM357.947 127.819L364.172 137.941H361.176L356.318 130.03L351.694 137.941H348.756L354.951 127.819L348.727 117.668H351.694L356.58 125.609L361.234 117.668H364.201L357.947 127.819Z" fill="#6D6BAF"/>
</svg>
