<svg width="192" height="68" viewBox="0 0 192 68" fill="none" xmlns="http://www.w3.org/2000/svg">
<path d="M40.2315 35.9717C27.1056 35.6439 18.6456 50.7641 18.2793 57.0867C19.6569 53.6276 29.1486 52.4682 31.9137 52.679C47.2288 56.7549 54.4116 40.738 56.2707 33.9126C55.9957 34.2207 53.3574 36.2995 40.2315 35.9717Z" fill="#FFD566"/>
<path d="M22.7594 17.2293C12.5849 26.7116 13.1768 48.9361 16.0623 60.0404C16.4445 58.9375 25.7318 47.4538 35.6085 40.7774C52.5973 29.2935 46.398 12.3354 43.9954 6.86427C34.7397 11.8231 33.1393 7.55563 22.7594 17.2293Z" fill="#8966FF"/>
<path d="M14.045 51.4622C14.0975 50.0796 14.1501 48.6969 14.2026 47.3142C14.2817 47.3566 15.0388 47.1535 15.6356 46.83C16.2675 46.508 16.9265 46.0777 17.5515 45.6133C24.2583 40.3593 29.0228 32.0802 30.5395 23.4737L33.8507 23.8271C33.546 28.9643 33.9066 34.2973 34.6743 39.4719C35.0739 42.0439 35.588 44.6469 36.4135 47.0209C36.8231 48.1816 37.3711 49.3878 37.9754 49.9618C38.1103 50.0898 38.2214 50.1413 38.2432 50.1475C38.266 50.1515 38.2506 50.1724 38.3632 50.1269C38.584 50.0345 38.9605 49.6654 39.2913 49.1781C41.8837 45.6421 41.8715 41.3658 42.8207 36.4258L44.9472 36.9672C43.4566 41.5304 38.8292 41.8681 35.5677 42.3524C32.071 42.7022 28.5962 42.5571 25.1747 42.2488C23.4106 42.0837 21.6703 41.8725 19.9356 41.5873C20.0179 41.075 20.1001 40.5627 20.1824 40.0504C21.8463 40.2811 23.5846 40.4497 25.3096 40.5678C28.6628 40.7875 32.0643 40.8373 35.3436 40.4247C38.4826 40.0221 42.2908 38.9987 42.8082 36.4752L44.9346 37.0167C44.2471 41.0097 44.3106 46.4626 41.3988 50.5911C40.9351 51.264 40.4947 51.9103 39.5124 52.4449C38.9988 52.7123 38.3149 52.8405 37.6848 52.6992C37.05 52.5626 36.5731 52.2371 36.2216 51.9311C34.8482 50.6118 34.3944 49.2996 33.8454 47.9668C32.8521 45.3154 32.265 42.6275 31.7779 39.9529C30.8479 34.5774 30.3358 29.1707 30.5209 23.6474L33.8321 24.0009C32.3402 33.534 27.633 42.4602 19.994 48.8078C18.3967 49.9151 17.1587 51.2422 14.045 51.4622Z" fill="white"/>
<path d="M72.245 6.83515H76.2492L70.7519 15.5448V22.6709H67.3586V15.5448L61.8613 6.83515H65.8655L69.0552 11.8573L72.245 6.83515ZM77.2103 18.5649V11.3596H80.6037V17.6148C80.6037 17.9692 80.6904 18.2934 80.8638 18.5875C81.0373 18.8741 81.2673 19.1041 81.5538 19.2775C81.8479 19.4434 82.1684 19.5264 82.5153 19.5264C82.8697 19.5264 83.1902 19.4434 83.4767 19.2775C83.7708 19.1041 84.0008 18.8741 84.1667 18.5875C84.3402 18.2934 84.4269 17.9692 84.4269 17.6148V11.3596H87.8203L87.8316 22.6709H84.4382L84.4269 21.9357C84.0498 22.2599 83.62 22.5125 83.1374 22.6935C82.6548 22.8745 82.1458 22.965 81.6104 22.965C80.8035 22.965 80.0645 22.7689 79.3934 22.3768C78.7298 21.9771 78.1982 21.4455 77.7985 20.7819C77.4064 20.1183 77.2103 19.3793 77.2103 18.5649ZM90.5984 11.3596H93.9918V22.6709H90.5984V11.3596ZM92.3177 10.1833C91.8276 10.1833 91.4166 10.0211 91.0848 9.69689C90.753 9.37264 90.5871 8.9692 90.5871 8.48659C90.5871 8.01152 90.753 7.61185 91.0848 7.2876C91.4166 6.9558 91.8238 6.7899 92.3064 6.7899C92.7815 6.7899 93.1811 6.9558 93.5054 7.2876C93.8372 7.61185 94.0031 8.01152 94.0031 8.48659C94.0031 8.9692 93.841 9.37264 93.5167 9.69689C93.2 10.0211 92.8003 10.1833 92.3177 10.1833ZM97.1936 22.6709V5.70402H100.587V22.6709H97.1936ZM107.046 22.8745C106.473 22.8217 105.923 22.6973 105.395 22.5012C104.867 22.3052 104.396 22.0375 103.981 21.6981C103.566 21.3588 103.238 20.944 102.997 20.4539L105.847 19.2323C105.923 19.3152 106.028 19.4208 106.164 19.549C106.3 19.6696 106.47 19.779 106.673 19.877C106.884 19.9751 107.137 20.0241 107.431 20.0241C107.627 20.0241 107.816 20.0052 107.997 19.9675C108.185 19.9223 108.336 19.8469 108.449 19.7413C108.57 19.6357 108.63 19.4887 108.63 19.3001C108.63 19.089 108.551 18.9306 108.392 18.8251C108.242 18.712 108.057 18.6328 107.838 18.5875C107.619 18.5348 107.416 18.4933 107.227 18.4631C106.556 18.3575 105.911 18.1464 105.293 17.8297C104.682 17.5054 104.181 17.0869 103.789 16.5741C103.397 16.0538 103.201 15.4468 103.201 14.753C103.201 13.9763 103.4 13.3052 103.8 12.7396C104.2 12.1741 104.72 11.7405 105.361 11.4388C106.01 11.1297 106.707 10.9751 107.454 10.9751C108.336 10.9751 109.15 11.156 109.897 11.518C110.651 11.88 111.269 12.4003 111.752 13.079L109.082 14.6625C108.992 14.5494 108.879 14.4363 108.743 14.3232C108.615 14.2025 108.464 14.1007 108.291 14.0178C108.125 13.9273 107.944 13.8707 107.748 13.8481C107.484 13.8255 107.246 13.8368 107.035 13.8821C106.831 13.9198 106.669 14.0027 106.549 14.1309C106.428 14.2516 106.368 14.4288 106.368 14.6625C106.368 14.8812 106.473 15.0396 106.684 15.1376C106.896 15.2356 107.133 15.3073 107.397 15.3525C107.661 15.3978 107.876 15.4468 108.042 15.4996C108.69 15.7107 109.301 15.9859 109.874 16.3253C110.447 16.6646 110.907 17.0756 111.254 17.5582C111.609 18.0408 111.774 18.6064 111.752 19.2549C111.752 20.009 111.526 20.6726 111.073 21.2457C110.621 21.8188 110.036 22.2524 109.32 22.5465C108.604 22.8406 107.846 22.9499 107.046 22.8745ZM113.83 11.3596H117.224V22.6709H113.83V11.3596ZM115.55 10.1833C115.059 10.1833 114.648 10.0211 114.317 9.69689C113.985 9.37264 113.819 8.9692 113.819 8.48659C113.819 8.01152 113.985 7.61185 114.317 7.2876C114.648 6.9558 115.056 6.7899 115.538 6.7899C116.013 6.7899 116.413 6.9558 116.737 7.2876C117.069 7.61185 117.235 8.01152 117.235 8.48659C117.235 8.9692 117.073 9.37264 116.749 9.69689C116.432 10.0211 116.032 10.1833 115.55 10.1833Z" fill="#8966FF"/>
<path d="M67.8336 28.6403H71.6568L77.403 44.4761H73.806L72.9011 41.9876H66.5894L65.6845 44.4761H62.0875L67.8336 28.6403ZM67.8336 38.5942H71.6568L69.7339 33.3458L67.8336 38.5942ZM79.6952 44.4761V27.5092H83.0886V44.4761H79.6952ZM93.7864 44.4761H89.3976L85.2804 33.1648H88.9L91.592 40.585L94.2841 33.1648H97.9037L93.7864 44.4761ZM107.657 33.1648H111.05V44.4761H107.646L107.487 43.4581C107.208 43.8502 106.854 44.1669 106.424 44.4082C106.002 44.6495 105.508 44.7702 104.942 44.7702C104.098 44.7702 103.306 44.6118 102.567 44.2951C101.835 43.9784 101.191 43.541 100.633 42.983C100.075 42.4174 99.6372 41.7689 99.3204 41.0375C99.0113 40.2985 98.8567 39.5067 98.8567 38.6621C98.8567 37.8552 99.0037 37.1011 99.2978 36.3998C99.5919 35.6985 100.003 35.084 100.531 34.5561C101.066 34.0207 101.681 33.6022 102.374 33.3006C103.076 32.9989 103.826 32.8481 104.625 32.8481C105.274 32.8481 105.862 32.9838 106.39 33.2553C106.925 33.5192 107.4 33.851 107.815 34.2507L107.657 33.1648ZM104.852 41.5125C105.319 41.5125 105.745 41.3919 106.13 41.1506C106.514 40.9093 106.82 40.585 107.046 40.1778C107.272 39.7706 107.385 39.3181 107.385 38.8204C107.385 38.3228 107.272 37.8703 107.046 37.4631C106.82 37.0559 106.514 36.7316 106.13 36.4903C105.745 36.249 105.319 36.1284 104.852 36.1284C104.384 36.1284 103.958 36.249 103.573 36.4903C103.196 36.7316 102.895 37.0559 102.669 37.4631C102.45 37.8703 102.341 38.3228 102.341 38.8204C102.341 39.3181 102.454 39.7706 102.68 40.1778C102.906 40.585 103.208 40.9093 103.585 41.1506C103.969 41.3919 104.392 41.5125 104.852 41.5125ZM113.83 44.4761L113.819 33.1648H117.212L117.223 33.8774C117.6 33.5532 118.03 33.3006 118.513 33.1196C118.995 32.9386 119.504 32.8481 120.04 32.8481C120.447 32.8481 120.862 32.9084 121.284 33.0291L119.949 36.4677C119.685 36.3471 119.414 36.2867 119.135 36.2867C118.781 36.2867 118.456 36.3734 118.162 36.5469C117.876 36.7128 117.646 36.9428 117.472 37.2369C117.306 37.5234 117.223 37.8439 117.223 38.1983V44.4761H113.83ZM130.59 33.1648H133.983V44.4761H130.579L130.42 43.4581C130.141 43.8502 129.787 44.1669 129.357 44.4082C128.935 44.6495 128.441 44.7702 127.875 44.7702C127.031 44.7702 126.239 44.6118 125.5 44.2951C124.768 43.9784 124.124 43.541 123.566 42.983C123.008 42.4174 122.57 41.7689 122.253 41.0375C121.944 40.2985 121.79 39.5067 121.79 38.6621C121.79 37.8552 121.937 37.1011 122.231 36.3998C122.525 35.6985 122.936 35.084 123.464 34.5561C123.999 34.0207 124.614 33.6022 125.308 33.3006C126.009 32.9989 126.759 32.8481 127.558 32.8481C128.207 32.8481 128.795 32.9838 129.323 33.2553C129.858 33.5192 130.333 33.851 130.748 34.2507L130.59 33.1648ZM127.785 41.5125C128.252 41.5125 128.678 41.3919 129.063 41.1506C129.447 40.9093 129.753 40.585 129.979 40.1778C130.205 39.7706 130.318 39.3181 130.318 38.8204C130.318 38.3228 130.205 37.8703 129.979 37.4631C129.753 37.0559 129.447 36.7316 129.063 36.4903C128.678 36.249 128.252 36.1284 127.785 36.1284C127.317 36.1284 126.891 36.249 126.507 36.4903C126.129 36.7316 125.828 37.0559 125.602 37.4631C125.383 37.8703 125.274 38.3228 125.274 38.8204C125.274 39.3181 125.387 39.7706 125.613 40.1778C125.839 40.585 126.141 40.9093 126.518 41.1506C126.902 41.3919 127.325 41.5125 127.785 41.5125ZM144.675 27.5092H148.068V44.4761H144.675V43.4354C144.328 43.8276 143.913 44.148 143.431 44.3969C142.956 44.6457 142.413 44.7702 141.802 44.7702C140.98 44.7702 140.211 44.6156 139.494 44.3064C138.778 43.9972 138.144 43.5712 137.594 43.0282C137.051 42.4778 136.625 41.8443 136.316 41.1279C136.007 40.4116 135.852 39.6424 135.852 38.8204C135.852 37.9985 136.007 37.2293 136.316 36.513C136.625 35.7966 137.051 35.1669 137.594 34.624C138.144 34.0735 138.778 33.6437 139.494 33.3345C140.211 33.0253 140.98 32.8707 141.802 32.8707C142.413 32.8707 142.956 32.9952 143.431 33.244C143.913 33.4853 144.328 33.8058 144.675 34.2055V27.5092ZM141.847 41.5125C142.315 41.5125 142.741 41.3919 143.125 41.1506C143.51 40.9093 143.815 40.585 144.041 40.1778C144.268 39.7706 144.381 39.3181 144.381 38.8204C144.381 38.3228 144.268 37.8703 144.041 37.4631C143.815 37.0559 143.51 36.7316 143.125 36.4903C142.741 36.249 142.315 36.1284 141.847 36.1284C141.38 36.1284 140.953 36.249 140.569 36.4903C140.192 36.7316 139.89 37.0559 139.664 37.4631C139.445 37.8703 139.336 38.3228 139.336 38.8204C139.336 39.3181 139.449 39.7706 139.675 40.1778C139.902 40.585 140.203 40.9093 140.58 41.1506C140.965 41.3919 141.387 41.5125 141.847 41.5125ZM156.012 44.7702C154.971 44.7702 154.021 44.5025 153.161 43.9671C152.309 43.4317 151.627 42.7153 151.114 41.8179C150.609 40.913 150.356 39.9139 150.356 38.8204C150.356 37.991 150.503 37.218 150.797 36.5016C151.092 35.7777 151.495 35.1443 152.008 34.6014C152.528 34.0509 153.131 33.621 153.818 33.3119C154.504 33.0027 155.235 32.8481 156.012 32.8481C157.053 32.8481 157.999 33.1158 158.851 33.6512C159.711 34.1866 160.393 34.9068 160.898 35.8117C161.411 36.7166 161.668 37.7195 161.668 38.8204C161.668 39.6424 161.52 40.4116 161.226 41.1279C160.932 41.8443 160.525 42.4778 160.005 43.0282C159.492 43.5712 158.893 43.9972 158.206 44.3064C157.528 44.6156 156.796 44.7702 156.012 44.7702ZM156.012 41.3768C156.442 41.3768 156.826 41.2599 157.166 41.0261C157.513 40.7924 157.784 40.4832 157.98 40.0986C158.176 39.7065 158.274 39.2804 158.274 38.8204C158.274 38.3454 158.169 37.9118 157.957 37.5197C157.754 37.1275 157.479 36.8184 157.132 36.5921C156.792 36.3584 156.419 36.2415 156.012 36.2415C155.59 36.2415 155.205 36.3621 154.858 36.6034C154.519 36.8372 154.247 37.1502 154.044 37.5423C153.848 37.9344 153.75 38.3605 153.75 38.8204C153.75 39.3031 153.851 39.7367 154.055 40.1212C154.266 40.5058 154.541 40.8112 154.881 41.0375C155.228 41.2637 155.605 41.3768 156.012 41.3768Z" fill="#8966FF"/>
<path d="M64.3504 55.2346C65.1693 55.2346 65.8768 55.389 66.473 55.6979C67.0764 55.9996 67.5362 56.4342 67.8522 57.0017C68.1755 57.5691 68.3371 58.2372 68.3371 59.0058C68.3371 59.7744 68.1755 60.4424 67.8522 61.0099C67.5362 61.5702 67.0764 62.0012 66.473 62.3029C65.8768 62.5974 65.1693 62.7446 64.3504 62.7446H62.0123V55.2346H64.3504ZM64.3504 61.9365C65.3201 61.9365 66.06 61.6815 66.57 61.1715C67.08 60.6543 67.335 59.9324 67.335 59.0058C67.335 58.072 67.0764 57.3429 66.5592 56.8185C66.0492 56.2941 65.313 56.0319 64.3504 56.0319H62.9928V61.9365H64.3504ZM70.3738 55.8811C70.1871 55.8811 70.0291 55.8164 69.8998 55.6871C69.7705 55.5578 69.7058 55.3998 69.7058 55.2131C69.7058 55.0263 69.7705 54.8683 69.8998 54.739C70.0291 54.6097 70.1871 54.545 70.3738 54.545C70.5534 54.545 70.7043 54.6097 70.8264 54.739C70.9557 54.8683 71.0203 55.0263 71.0203 55.2131C71.0203 55.3998 70.9557 55.5578 70.8264 55.6871C70.7043 55.8164 70.5534 55.8811 70.3738 55.8811ZM70.8479 56.84V62.7446H69.8674V56.84H70.8479ZM74.8464 62.8416C74.3939 62.8416 73.988 62.7662 73.6288 62.6153C73.2697 62.4573 72.9859 62.2418 72.7776 61.9688C72.5693 61.6887 72.4544 61.369 72.4328 61.0099H73.4457C73.4744 61.3044 73.6109 61.545 73.8551 61.7318C74.1065 61.9186 74.4334 62.0119 74.8356 62.0119C75.2091 62.0119 75.5037 61.9293 75.7192 61.7641C75.9346 61.5989 76.0424 61.3906 76.0424 61.1392C76.0424 60.8806 75.9275 60.6902 75.6976 60.5681C75.4677 60.4388 75.1122 60.3131 74.6309 60.191C74.1927 60.0761 73.8336 59.9611 73.5534 59.8462C73.2805 59.7241 73.0434 59.5481 72.8423 59.3182C72.6483 59.0812 72.5514 58.7723 72.5514 58.3916C72.5514 58.0899 72.6412 57.8134 72.8207 57.562C73.0003 57.3105 73.2553 57.113 73.5857 56.9693C73.9162 56.8185 74.2933 56.7431 74.7171 56.7431C75.3708 56.7431 75.8987 56.9083 76.301 57.2387C76.7033 57.5691 76.9187 58.0217 76.9475 58.5963H75.967C75.9454 58.2875 75.8197 58.0396 75.5899 57.8529C75.3672 57.6661 75.0655 57.5727 74.6848 57.5727C74.3328 57.5727 74.0527 57.6482 73.8443 57.799C73.636 57.9498 73.5319 58.1474 73.5319 58.3916C73.5319 58.5856 73.5929 58.7472 73.715 58.8765C73.8443 58.9986 74.0024 59.0992 74.1891 59.1782C74.3831 59.25 74.6489 59.3326 74.9865 59.426C75.4103 59.5409 75.7551 59.6559 76.0208 59.7708C76.2866 59.8785 76.5129 60.0437 76.6997 60.2664C76.8936 60.4891 76.9942 60.78 77.0014 61.1392C77.0014 61.4624 76.9116 61.7533 76.732 62.0119C76.5524 62.2705 76.2974 62.4753 75.967 62.6261C75.6437 62.7698 75.2702 62.8416 74.8464 62.8416ZM84.0099 59.5661C84.0099 59.7528 83.9992 59.9504 83.9776 60.1587H79.2583C79.2942 60.7405 79.4917 61.1967 79.8509 61.5271C80.2172 61.8503 80.659 62.0119 81.1762 62.0119C81.6 62.0119 81.9519 61.915 82.2321 61.721C82.5194 61.5199 82.7205 61.2541 82.8355 60.9237H83.8914C83.7334 61.4912 83.4173 61.9545 82.9432 62.3136C82.4691 62.6656 81.8801 62.8416 81.1762 62.8416C80.6159 62.8416 80.1131 62.7159 79.6677 62.4645C79.2295 62.2131 78.8847 61.8575 78.6333 61.3978C78.3819 60.9309 78.2562 60.3921 78.2562 59.7816C78.2562 59.171 78.3783 58.6358 78.6225 58.1761C78.8668 57.7164 79.208 57.3644 79.6461 57.1202C80.0915 56.8688 80.6015 56.7431 81.1762 56.7431C81.7365 56.7431 82.2321 56.8652 82.6631 57.1094C83.0941 57.3536 83.4245 57.6913 83.6544 58.1222C83.8914 58.5461 84.0099 59.0273 84.0099 59.5661ZM82.9971 59.3613C82.9971 58.9878 82.9145 58.6682 82.7493 58.4024C82.5841 58.1294 82.3578 57.9247 82.0705 57.7882C81.7903 57.6446 81.4779 57.5727 81.1331 57.5727C80.6374 57.5727 80.2136 57.7308 79.8616 58.0468C79.5168 58.3629 79.3193 58.8011 79.269 59.3613H82.9971ZM88.4181 56.7323C89.1364 56.7323 89.7182 56.9514 90.1636 57.3896C90.609 57.8206 90.8316 58.4455 90.8316 59.2644V62.7446H89.8619V59.4044C89.8619 58.8154 89.7146 58.3665 89.4201 58.0576C89.1256 57.7415 88.7234 57.5835 88.2134 57.5835C87.6962 57.5835 87.2831 57.7451 86.9743 58.0684C86.6726 58.3916 86.5217 58.8621 86.5217 59.4799V62.7446H85.5412V56.84H86.5217V57.6805C86.7157 57.3788 86.9779 57.1453 87.3083 56.9801C87.6459 56.8149 88.0158 56.7323 88.4181 56.7323ZM86.5971 56.2043C86.6474 55.838 86.7659 55.5578 86.9527 55.3639C87.1467 55.17 87.3873 55.073 87.6746 55.073C87.8111 55.073 87.926 55.0981 88.0194 55.1484C88.12 55.1915 88.2385 55.2562 88.375 55.3423C88.4755 55.4142 88.5653 55.4716 88.6444 55.5147C88.7234 55.5507 88.8096 55.5686 88.9029 55.5686C89.0251 55.5686 89.1292 55.5291 89.2154 55.4501C89.3016 55.3711 89.3555 55.2562 89.377 55.1053H89.9373C89.8942 55.4645 89.7757 55.741 89.5818 55.935C89.3878 56.1289 89.1472 56.2259 88.8598 56.2259C88.7234 56.2259 88.6013 56.2043 88.4935 56.1612C88.3929 56.111 88.278 56.0391 88.1487 55.9457C88.0338 55.8739 87.9404 55.82 87.8686 55.7841C87.8039 55.7482 87.7249 55.7302 87.6315 55.7302C87.5094 55.7302 87.4053 55.7697 87.3191 55.8488C87.24 55.9278 87.1898 56.0463 87.1682 56.2043H86.5971ZM92.304 59.7708C92.304 59.1674 92.4261 58.6394 92.6703 58.1869C92.9146 57.7272 93.2486 57.3716 93.6724 57.1202C94.1034 56.8688 94.5811 56.7431 95.1054 56.7431C95.6226 56.7431 96.0716 56.8544 96.4523 57.0771C96.833 57.2998 97.1167 57.5799 97.3035 57.9175V56.84H98.2948V62.7446H97.3035V61.6456C97.1095 61.9904 96.8186 62.2777 96.4307 62.5076C96.05 62.7303 95.6047 62.8416 95.0947 62.8416C94.5703 62.8416 94.0962 62.7123 93.6724 62.4537C93.2486 62.1951 92.9146 61.8324 92.6703 61.3655C92.4261 60.8985 92.304 60.367 92.304 59.7708ZM97.3035 59.7816C97.3035 59.3362 97.2137 58.9483 97.0341 58.6179C96.8545 58.2875 96.6103 58.036 96.3014 57.8636C95.9997 57.6841 95.6657 57.5943 95.2994 57.5943C94.933 57.5943 94.599 57.6805 94.2973 57.8529C93.9956 58.0253 93.755 58.2767 93.5754 58.6071C93.3958 58.9375 93.306 59.3254 93.306 59.7708C93.306 60.2233 93.3958 60.6184 93.5754 60.956C93.755 61.2864 93.9956 61.5414 94.2973 61.721C94.599 61.8934 94.933 61.9796 95.2994 61.9796C95.6657 61.9796 95.9997 61.8934 96.3014 61.721C96.6103 61.5414 96.8545 61.2864 97.0341 60.956C97.2137 60.6184 97.3035 60.2269 97.3035 59.7816ZM99.8224 59.7708C99.8224 59.1674 99.9446 58.6394 100.189 58.1869C100.433 57.7272 100.767 57.3716 101.191 57.1202C101.622 56.8688 102.103 56.7431 102.635 56.7431C103.094 56.7431 103.522 56.8508 103.917 57.0663C104.312 57.2746 104.614 57.5512 104.822 57.896V54.7713H105.813V62.7446H104.822V61.6348C104.628 61.9868 104.341 62.2777 103.96 62.5076C103.579 62.7303 103.134 62.8416 102.624 62.8416C102.1 62.8416 101.622 62.7123 101.191 62.4537C100.767 62.1951 100.433 61.8324 100.189 61.3655C99.9446 60.8985 99.8224 60.367 99.8224 59.7708ZM104.822 59.7816C104.822 59.3362 104.732 58.9483 104.553 58.6179C104.373 58.2875 104.129 58.036 103.82 57.8636C103.518 57.6841 103.184 57.5943 102.818 57.5943C102.451 57.5943 102.117 57.6805 101.816 57.8529C101.514 58.0253 101.273 58.2767 101.094 58.6071C100.914 58.9375 100.824 59.3254 100.824 59.7708C100.824 60.2233 100.914 60.6184 101.094 60.956C101.273 61.2864 101.514 61.5414 101.816 61.721C102.117 61.8934 102.451 61.9796 102.818 61.9796C103.184 61.9796 103.518 61.8934 103.82 61.721C104.129 61.5414 104.373 61.2864 104.553 60.956C104.732 60.6184 104.822 60.2269 104.822 59.7816ZM110.282 62.8416C109.729 62.8416 109.226 62.7159 108.774 62.4645C108.329 62.2131 107.977 61.8575 107.718 61.3978C107.467 60.9309 107.341 60.3921 107.341 59.7816C107.341 59.1782 107.47 58.6466 107.729 58.1869C107.995 57.72 108.354 57.3644 108.806 57.1202C109.259 56.8688 109.765 56.7431 110.325 56.7431C110.886 56.7431 111.392 56.8688 111.845 57.1202C112.297 57.3644 112.653 57.7164 112.911 58.1761C113.177 58.6358 113.31 59.171 113.31 59.7816C113.31 60.3921 113.174 60.9309 112.901 61.3978C112.635 61.8575 112.272 62.2131 111.812 62.4645C111.353 62.7159 110.843 62.8416 110.282 62.8416ZM110.282 61.9796C110.634 61.9796 110.965 61.897 111.274 61.7318C111.583 61.5666 111.83 61.3188 112.017 60.9883C112.211 60.6579 112.308 60.2557 112.308 59.7816C112.308 59.3075 112.215 58.9052 112.028 58.5748C111.841 58.2444 111.597 58.0001 111.295 57.8421C110.994 57.6769 110.667 57.5943 110.315 57.5943C109.956 57.5943 109.625 57.6769 109.323 57.8421C109.029 58.0001 108.792 58.2444 108.612 58.5748C108.433 58.9052 108.343 59.3075 108.343 59.7816C108.343 60.2628 108.429 60.6687 108.602 60.9991C108.781 61.3295 109.018 61.5774 109.313 61.7426C109.607 61.9006 109.93 61.9796 110.282 61.9796ZM115.817 57.799C115.989 57.4614 116.233 57.1992 116.55 57.0124C116.873 56.8257 117.264 56.7323 117.724 56.7323V57.7451H117.465C116.366 57.7451 115.817 58.3413 115.817 59.5337V62.7446H114.836V56.84H115.817V57.799ZM118.727 59.7708C118.727 59.1674 118.849 58.6394 119.093 58.1869C119.337 57.7272 119.671 57.3716 120.095 57.1202C120.526 56.8688 121.004 56.7431 121.528 56.7431C122.045 56.7431 122.494 56.8544 122.875 57.0771C123.256 57.2998 123.539 57.5799 123.726 57.9175V56.84H124.717V62.7446H123.726V61.6456C123.532 61.9904 123.241 62.2777 122.853 62.5076C122.473 62.7303 122.027 62.8416 121.517 62.8416C120.993 62.8416 120.519 62.7123 120.095 62.4537C119.671 62.1951 119.337 61.8324 119.093 61.3655C118.849 60.8985 118.727 60.367 118.727 59.7708ZM123.726 59.7816C123.726 59.3362 123.636 58.9483 123.457 58.6179C123.277 58.2875 123.033 58.036 122.724 57.8636C122.422 57.6841 122.088 57.5943 121.722 57.5943C121.356 57.5943 121.022 57.6805 120.72 57.8529C120.418 58.0253 120.178 58.2767 119.998 58.6071C119.818 58.9375 119.729 59.3254 119.729 59.7708C119.729 60.2233 119.818 60.6184 119.998 60.956C120.178 61.2864 120.418 61.5414 120.72 61.721C121.022 61.8934 121.356 61.9796 121.722 61.9796C122.088 61.9796 122.422 61.8934 122.724 61.721C123.033 61.5414 123.277 61.2864 123.457 60.956C123.636 60.6184 123.726 60.2269 123.726 59.7816ZM130.68 55.2346V59.9863C130.68 60.6543 130.842 61.15 131.165 61.4732C131.495 61.7964 131.951 61.9581 132.533 61.9581C133.108 61.9581 133.557 61.7964 133.88 61.4732C134.21 61.15 134.376 60.6543 134.376 59.9863V55.2346H135.356V59.9755C135.356 60.6004 135.23 61.1284 134.979 61.5594C134.728 61.9832 134.386 62.2993 133.955 62.5076C133.532 62.7159 133.054 62.8201 132.522 62.8201C131.991 62.8201 131.51 62.7159 131.079 62.5076C130.655 62.2993 130.317 61.9832 130.066 61.5594C129.822 61.1284 129.699 60.6004 129.699 59.9755V55.2346H130.68ZM138.209 55.2346V62.7446H137.229V55.2346H138.209ZM143.781 52.5948L140.829 64.5763H139.859L142.8 52.5948H143.781ZM146.438 55.2346V59.9863C146.438 60.6543 146.599 61.15 146.923 61.4732C147.253 61.7964 147.709 61.9581 148.291 61.9581C148.866 61.9581 149.315 61.7964 149.638 61.4732C149.968 61.15 150.134 60.6543 150.134 59.9863V55.2346H151.114V59.9755C151.114 60.6004 150.988 61.1284 150.737 61.5594C150.486 61.9832 150.144 62.2993 149.713 62.5076C149.29 62.7159 148.812 62.8201 148.28 62.8201C147.749 62.8201 147.268 62.7159 146.837 62.5076C146.413 62.2993 146.075 61.9832 145.824 61.5594C145.579 61.1284 145.457 60.6004 145.457 59.9755V55.2346H146.438ZM156.058 58.995L158.363 62.7446H157.254L155.454 59.8139L153.741 62.7446H152.653L154.948 58.995L152.642 55.2346H153.741L155.551 58.1761L157.275 55.2346H158.374L156.058 58.995Z" fill="#B098FF"/>
</svg>
